<svg width="184" height="159" viewBox="0 0 184 159" fill="none" xmlns="http://www.w3.org/2000/svg">
<path d="M142.863 43.8172L124.262 52.6411L158.165 60.512L145.286 44.3716C145.005 44.0189 144.612 43.7721 144.171 43.6714C143.731 43.5707 143.27 43.6221 142.863 43.8172Z" fill="#E0E0E0"/>
<path d="M124.423 52.6818L158.131 60.5071C158.174 60.5173 158.212 60.5445 158.236 60.5826C158.26 60.6208 158.268 60.6668 158.257 60.7106L153.788 79.963C153.763 80.0683 153.698 80.1596 153.606 80.2168C153.515 80.274 153.404 80.2924 153.298 80.2679L120.06 72.5514C119.954 72.5269 119.863 72.4616 119.806 72.3699C119.749 72.2781 119.73 72.1673 119.755 72.062L124.224 52.8097C124.234 52.7666 124.261 52.7292 124.298 52.7053C124.335 52.6814 124.38 52.673 124.423 52.6818Z" fill="#E0E0E0"/>
<path d="M155.965 60.4879L140.054 65.8391L126.044 54.2114L128.513 44.9019C128.637 44.4169 128.947 44.0004 129.376 43.743C129.805 43.4855 130.318 43.4081 130.804 43.5274L156.579 49.5062C157.071 49.6217 157.497 49.9279 157.764 50.3574C158.03 50.787 158.115 51.3048 158 51.7969L155.965 60.4879Z" fill="white"/>
<path d="M139.046 64.2635L120.001 70.9066C119.955 71.1055 119.948 71.3115 119.982 71.5129C120.015 71.7142 120.088 71.907 120.196 72.0802C120.304 72.2534 120.445 72.4036 120.611 72.5222C120.778 72.6407 120.965 72.7254 121.164 72.7713L152.195 79.9733C152.393 80.0195 152.599 80.026 152.801 79.9925C153.002 79.959 153.195 79.8861 153.368 79.778C153.541 79.67 153.691 79.5288 153.81 79.3626C153.929 79.1965 154.013 79.0085 154.059 78.8096L154.087 78.6951L140.768 64.6988C140.553 64.4684 140.277 64.3049 139.971 64.2277C139.666 64.1505 139.344 64.163 139.046 64.2635Z" fill="#E0E0E0"/>
<path d="M141.145 50.3426L131.063 48.0039L130.824 49.0348L140.906 51.3735L141.145 50.3426Z" fill="#E0E0E0"/>
<path d="M152.833 55.807L130.46 50.6172L130.19 51.782L152.563 56.9718L152.833 55.807Z" fill="#F5F5F5"/>
<path d="M152.172 58.6449L129.799 53.4551L129.529 54.6199L151.901 59.8097L152.172 58.6449Z" fill="#F5F5F5"/>
<path d="M150.88 62.2067L149.941 62.5136L131.051 58.3674L129.136 56.7456L129.173 56.4707L151.471 61.6432L151.384 62.028L150.88 62.2067Z" fill="#F5F5F5"/>
<path d="M144.402 64.3747L135.94 62.4139L133.915 60.7188L146.56 63.6509L144.402 64.3747Z" fill="#F5F5F5"/>
<path d="M138.35 64.5059C138.122 64.6252 137.885 64.7233 137.639 64.7991L135.665 65.5092C133.997 66.1002 131.693 66.8836 129.141 67.7678C126.589 68.6521 124.271 69.4126 122.589 69.9624L120.601 70.6038C120.361 70.6939 120.112 70.7614 119.859 70.8053C120.088 70.6897 120.325 70.5917 120.569 70.5121L122.539 69.802C124.207 69.211 126.511 68.4276 129.063 67.5434C131.615 66.6591 133.929 65.8986 135.61 65.3488L137.603 64.712C137.846 64.625 138.096 64.5561 138.35 64.5059Z" fill="#EBEBEB"/>
<path d="M154.087 78.6951C154.041 78.7409 151.164 75.795 147.673 72.1207C144.182 68.4464 141.369 65.4272 141.419 65.3814C141.47 65.3356 144.342 68.2769 147.833 71.9558C151.324 75.6347 154.137 78.6493 154.087 78.6951Z" fill="#EBEBEB"/>
<path d="M156.739 60.2285C156.555 60.3316 156.361 60.4189 156.162 60.4897C155.786 60.6408 155.246 60.8562 154.559 61.1127C153.184 61.6259 151.315 62.3085 149.221 63.0278C147.127 63.7471 145.212 64.361 143.824 64.7871C143.128 64.9978 142.564 65.1673 142.175 65.2727C141.976 65.3437 141.77 65.3929 141.561 65.4193C141.749 65.3238 141.945 65.2456 142.147 65.1856L143.774 64.6267L149.143 62.7941L154.504 60.9615L156.13 60.4118C156.327 60.3314 156.531 60.27 156.739 60.2285Z" fill="#EBEBEB"/>
<path d="M138.35 64.5072C138.147 64.3704 137.955 64.2172 137.777 64.0491L136.265 62.7846L131.226 58.6613C129.256 57.0532 127.487 55.578 126.237 54.4739C125.609 53.9241 125.105 53.4751 124.766 53.1544C124.58 52.999 124.409 52.8255 124.257 52.6367C124.459 52.7756 124.65 52.9287 124.83 53.0949L126.342 54.3593L131.381 58.4826C133.351 60.0907 135.12 61.5705 136.371 62.6701C136.998 63.2199 137.502 63.6734 137.841 63.9941C138.026 64.1489 138.197 64.3207 138.35 64.5072Z" fill="#EBEBEB"/>
<path d="M155.965 60.4884C155.961 60.4442 155.961 60.3997 155.965 60.3555C155.965 60.2593 156.011 60.131 156.043 59.9753C156.116 59.6271 156.222 59.1414 156.355 58.5275L157.555 53.1993C157.619 52.9152 157.683 52.6266 157.747 52.3334C157.827 52.0419 157.885 51.7448 157.921 51.4446C157.939 51.1331 157.874 50.8224 157.735 50.5435C157.595 50.2646 157.384 50.0272 157.124 49.8548C156.846 49.679 156.534 49.5635 156.208 49.5158L155.168 49.2776L152.996 48.7782L143.334 46.547L133.672 44.293L131.5 43.7844C131.163 43.6931 130.82 43.6212 130.474 43.5691C130.152 43.5481 129.83 43.614 129.543 43.7599C129.255 43.9058 129.012 44.1263 128.838 44.3983C128.684 44.6702 128.575 44.9659 128.518 45.2734C128.353 45.8782 128.197 46.46 128.06 47.0189L126.621 52.2876C126.451 52.8969 126.319 53.3734 126.218 53.717C126.175 53.8697 126.138 53.9934 126.108 54.0881C126.1 54.1316 126.084 54.1734 126.062 54.2118C126.062 54.2118 126.062 54.166 126.085 54.0789L126.172 53.7033C126.259 53.3596 126.378 52.8786 126.534 52.2647C126.859 51.0002 127.322 49.1951 127.908 46.9777C128.055 46.4188 128.206 45.8323 128.366 45.2276C128.428 44.9055 128.543 44.5959 128.706 44.3113C128.892 44.0128 129.154 43.7693 129.466 43.6058C129.788 43.4348 130.151 43.3571 130.515 43.3813C130.873 43.4321 131.228 43.5024 131.578 43.592L133.75 44.0914L143.412 46.3271L153.074 48.5675L155.241 49.076L156.281 49.3188C156.635 49.3721 156.973 49.4985 157.275 49.6899C157.561 49.8829 157.792 50.147 157.945 50.4564C158.097 50.7657 158.167 51.1095 158.146 51.4538C158.108 51.7634 158.047 52.0697 157.963 52.3701C157.894 52.6633 157.825 52.9519 157.756 53.2314C157.225 55.4625 156.79 57.2722 156.487 58.5413L156.13 59.9844C156.089 60.1356 156.057 60.2593 156.029 60.3555C156.015 60.4027 155.993 60.4475 155.965 60.4884Z" fill="#E0E0E0"/>
<path d="M112.075 5.9009L143.802 0L148.543 21.4412L115.594 27.0076L112.075 5.9009Z" fill="#EBEBEB"/>
<path d="M143.802 0C143.802 0 143.802 0.0320722 143.747 0.091631L143.568 0.339026L142.863 1.28281L140.246 4.73722C137.956 7.6556 134.85 11.6735 131.395 16.1359L131.336 16.2137L131.244 16.1679L130.63 15.8426L117.486 8.85593L113.514 6.7164L112.442 6.12081L112.167 5.96046C112.134 5.94518 112.103 5.92512 112.075 5.9009C112.111 5.90853 112.145 5.92249 112.176 5.94213L112.465 6.07958L113.56 6.63393L117.564 8.70933C120.954 10.4869 125.604 12.9334 130.74 15.6365L131.358 15.9618L131.207 15.9938L140.091 4.63642L142.789 1.22783L143.531 0.311538L143.728 0.0778837C143.749 0.0486368 143.774 0.022423 143.802 0Z" fill="#E0E0E0"/>
<path d="M115.594 27.0075C115.539 26.9708 117.578 23.7363 120.148 19.7825C122.718 15.8287 124.853 12.6492 124.908 12.6859C124.963 12.7225 122.924 15.957 120.349 19.9108C117.775 23.8646 115.649 27.0441 115.594 27.0075Z" fill="#E0E0E0"/>
<path d="M148.543 21.4417C148.502 21.4921 145.533 19.2197 141.914 16.3701C138.294 13.5204 135.394 11.1564 135.431 11.0968C135.468 11.0373 138.441 13.3188 142.06 16.1731C145.68 19.0273 148.58 21.3914 148.543 21.4417Z" fill="#E0E0E0"/>
<path d="M162.957 20.7266L183.999 25.8257L181.017 40.2481L159.319 34.6129L162.957 20.7266Z" fill="#F5F5F5"/>
<path d="M183.999 25.8257C183.927 25.8837 183.848 25.9344 183.766 25.9769L183.079 26.3663L180.522 27.7408L171.991 32.3222L171.904 32.368L171.845 32.2901L171.556 31.9236L165.445 24.0389C164.684 23.0402 164.07 22.2064 163.612 21.6291L163.122 20.9694C163.062 20.893 163.008 20.8118 162.961 20.7266C163.036 20.7878 163.102 20.8587 163.158 20.9373L163.685 21.5741C164.143 22.156 164.789 22.9486 165.577 23.9336C167.172 25.9677 169.348 28.7303 171.749 31.7862L172.037 32.1527L171.886 32.1206L180.449 27.6171L183.042 26.2839L183.747 25.9357C183.826 25.8869 183.91 25.8498 183.999 25.8257Z" fill="#E0E0E0"/>
<path d="M159.319 34.6125C159.282 34.5575 161.408 33.1189 164.07 31.4055C166.732 29.692 168.917 28.3451 168.949 28.4001C168.981 28.455 166.86 29.8936 164.198 31.6071C161.536 33.3205 159.355 34.6675 159.319 34.6125Z" fill="#E0E0E0"/>
<path d="M181.022 40.2476C180.967 40.2796 179.757 38.0805 178.323 35.3408C176.889 32.6011 175.771 30.3379 175.826 30.3379C175.881 30.3379 177.095 32.5049 178.529 35.2446C179.963 37.9843 181.072 40.2201 181.022 40.2476Z" fill="#E0E0E0"/>
<path d="M141.072 149.296L141.58 149.479C141.91 149.607 142.414 149.777 143.083 149.964C145.036 150.509 147.067 150.715 149.089 150.574C150.549 150.473 151.997 150.24 153.414 149.877C155.103 149.463 156.75 148.89 158.33 148.164C162.174 146.346 165.591 143.735 168.354 140.504C169.156 139.611 169.778 138.572 170.187 137.443C170.605 136.262 170.542 134.964 170.013 133.829C169.718 133.264 169.276 132.79 168.735 132.454C168.177 132.114 167.551 131.898 166.902 131.822C165.556 131.661 164.192 131.884 162.967 132.463C162.32 132.746 161.654 132.982 160.974 133.169C160.264 133.354 159.515 133.335 158.816 133.114C158.45 133.009 158.117 132.816 157.845 132.55C157.573 132.285 157.371 131.956 157.258 131.593C157.17 131.221 157.162 130.834 157.236 130.459C157.309 130.083 157.462 129.728 157.684 129.417C158.122 128.785 158.729 128.288 159.434 127.983C160.129 127.675 160.844 127.416 161.574 127.208C164.54 126.254 167.333 124.826 169.843 122.98C170.497 122.527 171.091 121.995 171.612 121.395C172.158 120.818 172.482 120.066 172.528 119.273C172.521 118.883 172.405 118.502 172.194 118.174C171.974 117.844 171.68 117.57 171.337 117.372C170.622 116.982 169.828 116.76 169.014 116.721C168.17 116.683 167.331 116.568 166.508 116.378C166.077 116.276 165.676 116.074 165.338 115.787C165 115.5 164.736 115.138 164.565 114.729C164.489 114.51 164.463 114.277 164.491 114.048C164.519 113.818 164.599 113.598 164.726 113.405C164.994 113.05 165.33 112.752 165.715 112.529C166.43 112.071 167.136 111.572 167.818 111.05C169.197 109.997 170.493 108.839 171.694 107.586C172.885 106.317 174.095 104.998 174.842 103.403C175.231 102.617 175.417 101.746 175.382 100.87C175.329 99.9917 174.978 99.158 174.388 98.5056C173.793 97.8593 173.042 97.376 172.207 97.1017C171.373 96.8274 170.481 96.7714 169.619 96.9388C167.902 97.3113 166.345 98.2116 165.166 99.5136C162.751 102.056 161.56 105.41 159.581 108.191C159.093 108.892 158.543 109.546 157.936 110.147C157.64 110.461 157.301 110.731 156.928 110.949C156.732 111.069 156.509 111.136 156.279 111.144C156.05 111.152 155.822 111.101 155.618 110.995C155.434 110.866 155.278 110.702 155.16 110.511C155.042 110.321 154.964 110.108 154.931 109.886C154.874 109.465 154.874 109.038 154.931 108.617C154.985 108.22 154.969 107.817 154.885 107.426C154.786 107.047 154.587 106.701 154.308 106.427C154.026 106.154 153.694 105.939 153.329 105.795C152.964 105.651 152.574 105.581 152.182 105.589C151.397 105.638 150.654 105.963 150.084 106.505C149.507 107.03 149.054 107.676 148.755 108.397C148.466 109.118 148.275 109.875 148.187 110.646C148.091 111.416 148.063 112.186 148.036 112.937C148.008 113.689 147.985 114.472 147.962 115.228C147.91 116.755 147.86 118.255 147.811 119.727C147.784 120.465 147.77 121.193 147.733 121.931C147.705 122.664 147.565 123.389 147.316 124.079C147.196 124.431 146.999 124.752 146.74 125.019C146.481 125.286 146.166 125.492 145.818 125.623C145.118 125.827 144.369 125.778 143.702 125.486C142.424 124.943 141.3 124.093 140.43 123.012C140.006 122.492 139.64 121.927 139.34 121.326C139.066 120.737 138.76 120.163 138.424 119.608C138.113 119.073 137.628 118.662 137.049 118.444C136.466 118.269 135.839 118.313 135.285 118.568C134.736 118.808 134.256 119.181 133.888 119.654C133.539 120.127 133.296 120.669 133.173 121.243C132.994 122.376 132.893 123.519 132.871 124.666C132.793 125.784 132.757 126.879 132.743 127.937C132.72 129.937 132.841 131.937 133.105 133.92C133.325 135.645 133.697 137.347 134.218 139.006C134.429 139.78 134.74 140.485 134.992 141.173C135.134 141.507 135.29 141.828 135.45 142.144C135.611 142.46 135.73 142.772 135.909 143.06C136.853 144.853 138.074 146.486 139.528 147.898C139.738 148.12 139.963 148.327 140.201 148.517L140.71 148.947L141.113 149.3L140.692 148.966L140.178 148.544C139.937 148.358 139.708 148.154 139.496 147.935C138.025 146.53 136.788 144.9 135.831 143.106C135.662 142.809 135.509 142.503 135.373 142.19C135.226 141.874 135.061 141.553 134.914 141.214C134.658 140.527 134.342 139.839 134.126 139.047C133.597 137.381 133.218 135.672 132.995 133.939C132.719 131.952 132.59 129.947 132.61 127.941C132.61 126.879 132.656 125.784 132.729 124.661C132.751 123.504 132.851 122.35 133.027 121.207C133.154 120.609 133.407 120.045 133.769 119.553C134.153 119.056 134.655 118.663 135.23 118.412C135.823 118.136 136.496 118.087 137.123 118.275C137.745 118.506 138.27 118.942 138.612 119.512C138.948 120.073 139.254 120.653 139.528 121.248C139.821 121.835 140.179 122.386 140.595 122.893C141.451 123.947 142.552 124.776 143.802 125.307C144.429 125.578 145.129 125.625 145.786 125.44C146.106 125.317 146.395 125.125 146.633 124.878C146.87 124.631 147.05 124.335 147.161 124.011C147.665 122.687 147.555 121.193 147.619 119.722C147.683 118.252 147.715 116.744 147.765 115.228C147.788 114.467 147.811 113.702 147.839 112.937C147.866 112.172 147.889 111.384 147.99 110.605C148.078 109.819 148.272 109.049 148.567 108.315C148.874 107.563 149.343 106.889 149.942 106.34C150.554 105.77 151.346 105.431 152.182 105.382C152.605 105.375 153.026 105.452 153.42 105.609C153.813 105.767 154.171 106.001 154.473 106.299C154.782 106.602 155.002 106.984 155.109 107.403C155.203 107.818 155.221 108.246 155.164 108.667C155.109 109.067 155.109 109.472 155.164 109.872C155.189 110.063 155.253 110.246 155.352 110.41C155.452 110.574 155.584 110.715 155.742 110.825C155.91 110.913 156.099 110.955 156.289 110.946C156.479 110.937 156.663 110.878 156.823 110.775C157.176 110.567 157.498 110.311 157.78 110.014C158.373 109.421 158.912 108.777 159.393 108.09C160.34 106.667 161.213 105.196 162.009 103.683C162.822 102.129 163.827 100.683 165.001 99.3807C166.213 98.0416 167.816 97.1169 169.582 96.7372C170.486 96.562 171.419 96.6212 172.293 96.9091C173.167 97.197 173.953 97.7041 174.576 98.3819C175.2 99.0741 175.572 99.9575 175.63 100.888C175.666 101.804 175.472 102.714 175.066 103.536C174.296 105.176 173.073 106.505 171.859 107.783C170.65 109.044 169.345 110.21 167.956 111.27C167.269 111.796 166.558 112.291 165.839 112.759C165.483 112.964 165.172 113.238 164.923 113.565C164.814 113.728 164.746 113.915 164.722 114.11C164.698 114.305 164.72 114.502 164.785 114.687C164.945 115.06 165.189 115.39 165.5 115.65C165.81 115.91 166.178 116.094 166.572 116.185C167.381 116.374 168.207 116.486 169.037 116.52C169.885 116.564 170.712 116.799 171.456 117.207C171.824 117.426 172.137 117.725 172.372 118.082C172.606 118.446 172.734 118.868 172.743 119.301C172.705 120.154 172.366 120.965 171.786 121.592C171.245 122.205 170.63 122.749 169.953 123.209C167.422 125.067 164.608 126.504 161.62 127.465C160.897 127.667 160.189 127.922 159.503 128.225C158.83 128.517 158.253 128.993 157.84 129.6C157.633 129.886 157.489 130.213 157.419 130.559C157.349 130.905 157.353 131.262 157.432 131.607C157.538 131.935 157.723 132.233 157.972 132.473C158.22 132.713 158.525 132.887 158.857 132.981C159.521 133.192 160.231 133.21 160.905 133.031C161.576 132.849 162.233 132.618 162.87 132.34C164.129 131.752 165.527 131.527 166.907 131.689C167.58 131.776 168.228 132.003 168.808 132.358C169.378 132.71 169.842 133.211 170.15 133.806C170.7 134.986 170.762 136.336 170.324 137.562C169.908 138.712 169.274 139.77 168.455 140.678C165.676 143.919 162.241 146.533 158.376 148.347C156.786 149.072 155.131 149.642 153.433 150.051C152.008 150.408 150.555 150.636 149.089 150.734C147.057 150.863 145.017 150.64 143.06 150.074C142.552 149.931 142.052 149.761 141.562 149.566L141.072 149.296Z" fill="#263238"/>
<path d="M143.633 143.707C145.33 138.827 147.305 134.048 149.548 129.394C150.134 128.157 150.716 126.929 151.293 125.729C151.871 124.529 152.434 123.333 153.066 122.197C154.28 120.024 155.612 117.919 157.057 115.893C158.431 113.95 159.806 112.154 161.084 110.487C162.362 108.819 163.613 107.28 164.8 105.942C166.662 103.807 168.69 101.823 170.865 100.009C171.635 99.3674 172.24 98.8863 172.666 98.5702L173.147 98.2083C173.2 98.1651 173.257 98.1268 173.316 98.0938L173.165 98.2312L172.707 98.6114C172.299 98.9459 171.699 99.4361 170.939 100.091C168.797 101.934 166.795 103.934 164.951 106.075C163.778 107.426 162.555 108.961 161.286 110.629C160.017 112.296 158.647 114.101 157.286 116.044C155.854 118.066 154.532 120.164 153.328 122.33C152.7 123.457 152.136 124.643 151.564 125.848L149.823 129.513C147.582 134.157 145.604 138.923 143.899 143.789" fill="#263238"/>
<path d="M153.144 122.187C153.082 121.975 153.042 121.757 153.025 121.537C152.961 121.12 152.887 120.511 152.814 119.755C152.658 118.247 152.516 116.163 152.356 113.858C152.195 111.554 152.035 109.474 151.861 107.976C151.774 107.224 151.696 106.601 151.636 106.198C151.59 105.983 151.572 105.763 151.582 105.543C151.657 105.749 151.713 105.963 151.746 106.18C151.834 106.597 151.939 107.201 152.053 107.948C152.282 109.446 152.484 111.536 152.631 113.84C152.777 116.144 152.901 118.169 152.997 119.741C153.048 120.446 153.089 121.047 153.121 121.528C153.152 121.746 153.16 121.967 153.144 122.187Z" fill="#263238"/>
<path d="M172.633 119.319C172.378 119.364 172.118 119.384 171.859 119.378C171.359 119.406 170.64 119.438 169.747 119.507C167.969 119.63 165.518 119.882 162.824 120.286C160.437 120.643 158.114 121.069 155.952 121.55C155.082 121.743 154.381 121.912 153.895 122.008C153.645 122.084 153.389 122.138 153.13 122.169C153.365 122.054 153.613 121.964 153.868 121.903C154.326 121.756 155.04 121.555 155.911 121.339C157.643 120.881 160.071 120.396 162.783 119.988C165.088 119.637 167.409 119.404 169.738 119.291C170.631 119.246 171.355 119.246 171.854 119.255C172.115 119.248 172.377 119.269 172.633 119.319Z" fill="#263238"/>
<path d="M143.885 143.358C143.833 143.284 143.791 143.204 143.761 143.119L143.459 142.405C143.198 141.786 142.84 140.879 142.419 139.752C141.571 137.498 140.499 134.35 139.363 130.859C138.227 127.368 137.182 124.212 136.38 121.948C135.991 120.844 135.666 119.937 135.428 119.264C135.327 118.97 135.24 118.732 135.171 118.531C135.135 118.447 135.111 118.359 135.098 118.27C135.151 118.344 135.193 118.425 135.221 118.512L135.528 119.222C135.789 119.846 136.142 120.753 136.564 121.88C137.411 124.129 138.488 127.281 139.624 130.772C140.76 134.263 142.258 137.919 143.06 140.187C143.45 141.291 143.317 141.69 143.555 142.363C143.66 142.657 143.743 142.899 143.812 143.096C143.847 143.18 143.871 143.268 143.885 143.358Z" fill="#263238"/>
<path d="M169.916 136.068C169.834 136.111 169.746 136.143 169.655 136.165L168.899 136.384L166.114 137.168C163.759 137.832 160.52 138.79 156.951 139.848C153.602 140.838 150.487 141.736 147.751 142.446C146.569 142.757 145.607 142.996 144.938 143.147L144.169 143.316C144.081 143.342 143.99 143.356 143.898 143.357C143.981 143.314 144.069 143.282 144.16 143.261L144.916 143.041L147.701 142.258C150.056 141.594 153.295 140.636 156.864 139.578C160.433 138.519 163.695 137.594 166.063 136.98C167.245 136.669 168.208 136.43 168.872 136.279L169.642 136.11C169.731 136.083 169.823 136.07 169.916 136.068Z" fill="#263238"/>
<path d="M94.332 37.8564C94.332 37.8564 94.0663 36.5828 93.6219 32.8993L89.5719 24.9596C89.5719 24.9596 90.4882 23.2966 92.5544 26.8151C93.5074 28.4186 96.6777 27.7314 96.1646 25.23C95.6515 22.7285 92.3712 21.5648 90.3645 24.0571C90.3645 24.0571 89.0679 24.19 88.9168 23.1775C88.7656 22.165 91.6931 19.6635 94.1854 20.3919C95.2012 20.7118 96.1379 21.2426 96.9343 21.9496C96.9343 21.9496 96.3937 13.6022 97.0717 13.5289C97.7498 13.4556 98.689 13.9871 99.2021 23.1179C99.2021 23.1179 99.4861 15.893 99.6282 14.9721C99.7702 14.0512 101.003 13.4281 101.168 15.7418C101.168 15.9983 101.626 23.0996 101.626 23.0996C101.626 23.0996 102.437 18.4036 102.542 18.0279C102.771 17.0383 103.747 17.1437 103.843 18.454C103.912 19.4482 104.233 23.6906 104.233 23.6906L104.846 36.7523H104.929" fill="#FFBE9D"/>
<path d="M107.289 33.5444L92.0781 33.1504L90.5662 69.9577L73.3583 62.4075L73.3308 62.4671C72.2954 62.0089 71.3929 61.5966 70.9118 61.3309C61.4053 56.1492 55.1654 55.517 44.9625 59.1593L25.4181 66.9844C21.6338 68.7665 11.7883 70.4113 8.41176 85.979L7.95361 87.8391L23.5947 99.0591L34.3198 127.327L47.1479 155.622L76.6753 154.664L92.1056 135.422L79.0118 110.412L70.8752 82.4009C76.6249 86.2173 87.2951 91.4126 100.073 88.705C113.932 85.7729 107.289 33.5444 107.289 33.5444Z" fill="#01959F"/>
<g opacity="0.3">
<path d="M34.2192 127.039C36.5666 128.468 39.0994 129.567 41.7465 130.305C43.1851 130.736 44.8344 131.052 46.1127 130.264C47.3909 129.476 47.5879 127.144 46.1585 126.677L58.5513 123.877C56.8699 119.039 59.6417 113.519 63.8337 110.591C68.0257 107.664 72.7904 106.812 77.8941 106.367L84.0745 125.541L63.4168 153.716L46.5021 154.207L34.2192 127.039Z" fill="black"/>
</g>
<path d="M27.7359 100.553C27.7359 100.553 19.9887 117.505 21.7801 125.953C22.7696 130.681 38.2412 134.717 48.1005 135.922L45.1454 152.47C45.1454 152.47 8.49387 148.984 1.64461 134.474C-2.24962 126.228 1.695 106.07 9.11236 83.2539L27.7359 100.553Z" fill="#01959F"/>
<path d="M63.0222 120.404C62.9408 120.461 62.8532 120.509 62.7611 120.546L61.9868 120.904C61.3133 121.215 60.3283 121.641 59.1051 122.154C56.6586 123.171 53.2317 124.482 49.3787 125.719C45.5257 126.956 41.9751 127.881 39.3911 128.468C38.0992 128.765 37.05 128.99 36.3216 129.127L35.4832 129.283C35.3875 129.309 35.289 129.323 35.1899 129.324C35.281 129.285 35.3763 129.256 35.474 129.237L36.3032 129.036C37.0271 128.871 38.0671 128.619 39.3545 128.303C41.9247 127.666 45.457 126.713 49.3054 125.481C53.1538 124.248 56.5807 122.965 59.0409 121.985C60.2734 121.499 61.2629 121.096 61.9502 120.812L62.7382 120.491C62.8295 120.452 62.9247 120.423 63.0222 120.404Z" fill="white"/>
<path d="M73.2253 61.8639C73.2253 61.9234 58.8075 67.16 40.9765 73.5557C23.1455 79.9514 8.66356 85.0872 8.64065 85.0093C8.61774 84.9314 23.0585 79.7132 40.894 73.3175C58.7296 66.9218 73.2024 61.7997 73.2253 61.8639Z" fill="white"/>
<path d="M23.9703 109.14C23.9782 109.105 23.9905 109.071 24.007 109.039L24.1261 108.755L24.5842 107.66C24.9874 106.707 25.5601 105.319 26.1419 103.564C26.8275 101.507 27.2973 99.3831 27.5439 97.2281C27.8475 94.5966 27.6548 91.9315 26.9758 89.371C26.3092 86.8039 24.9934 84.4515 23.1548 82.54C21.626 81.0097 19.7466 79.8758 17.68 79.2368C16.2852 78.811 14.822 78.6555 13.3689 78.7787L12.6862 78.8657C12.4892 78.8932 12.3289 78.9344 12.1914 78.9573L11.8891 79.0169H11.7837C11.7837 79.0169 11.8158 79.0169 11.8799 78.9848L12.1823 78.9024C12.3151 78.8703 12.4801 78.8199 12.6771 78.7832L13.3597 78.6779C14.8265 78.5167 16.3107 78.6491 17.7258 79.0673C19.8327 79.6901 21.7518 80.8268 23.3106 82.3751C25.1851 84.3073 26.5268 86.6924 27.2048 89.2977C27.8921 91.8865 28.0818 94.5823 27.7638 97.2419C27.5012 99.4059 27.0098 101.536 26.2977 103.596C25.693 105.351 25.0974 106.73 24.6667 107.674C24.4468 108.132 24.2727 108.508 24.149 108.75L24.007 109.03C23.9932 109.099 23.9749 109.14 23.9703 109.14Z" fill="#263238"/>
<path d="M60.7816 58.0469C60.873 58.0742 60.9607 58.1127 61.0428 58.1614C61.289 58.2835 61.5263 58.4228 61.7529 58.5783C62.5943 59.1468 63.341 59.8441 63.9657 60.6446C64.8824 61.8387 65.6144 63.1638 66.1373 64.5754C66.7601 66.2976 67.2908 68.0518 67.7271 69.8304L70.279 79.4514L71.0212 82.3789L71.2136 83.1761C71.2421 83.2683 71.259 83.3638 71.264 83.4602C71.2218 83.374 71.1895 83.2833 71.1678 83.1898C71.1082 82.9837 71.0303 82.7317 70.9341 82.4018L70.114 79.4972L67.498 69.8762C66.9941 67.9978 66.5313 66.211 65.9312 64.635C65.4241 63.2393 64.7174 61.9244 63.8329 60.7316C63.2291 59.9332 62.5113 59.2278 61.7025 58.6379C61.1252 58.2439 60.7679 58.0652 60.7816 58.0469Z" fill="#263238"/>
<path d="M86.1177 67.9062L85.9162 68.0025L85.3068 68.2682L82.9794 69.2486C80.9453 70.1099 77.9902 71.3286 74.3343 72.8221C67.0039 75.8047 56.8789 79.8317 45.604 84.0833C34.3291 88.3349 24.0712 92.0138 16.5897 94.6207C12.8604 95.9172 9.83666 96.948 7.74294 97.649L5.32852 98.4507L4.70086 98.6523L4.48096 98.7165L4.6917 98.6294L5.31478 98.4049L7.71087 97.5619L16.5347 94.4603C23.9796 91.8306 34.242 88.1287 45.5215 83.8772C56.8011 79.6256 66.9444 75.6306 74.2701 72.6801L82.9428 69.1799L85.3022 68.2269L85.9207 67.9841L86.1177 67.9062Z" fill="white"/>
<path d="M72.7033 86.1719L72.5292 86.2543L72.007 86.4788L69.9865 87.3172C68.2318 88.0457 65.6846 89.0673 62.5234 90.3089C56.201 92.7875 47.4046 96.0815 37.614 99.4352C27.8235 102.789 18.8301 105.561 12.329 107.471C9.07164 108.424 6.42814 109.175 4.59557 109.675L2.4881 110.247L1.93833 110.389C1.87719 110.409 1.81428 110.423 1.75049 110.431C1.8083 110.405 1.86803 110.383 1.92916 110.366L2.47436 110.202L4.57266 109.597C6.40524 109.07 9.03041 108.291 12.2832 107.306C18.7843 105.359 27.7364 102.56 37.5362 99.2107C47.3359 95.8616 56.1277 92.5905 62.4638 90.1486C65.6296 88.9299 68.186 87.9311 69.9499 87.2302L71.9886 86.433L72.5201 86.2314L72.7033 86.1719Z" fill="white"/>
<path d="M108.521 70.3105C108.439 70.3945 108.35 70.4711 108.255 70.5396L107.454 71.1627C107.105 71.433 106.675 71.7583 106.166 72.1202C105.658 72.4822 105.085 72.9082 104.43 73.3435C103.133 74.2368 101.553 75.2493 99.7613 76.3122C97.97 77.3751 95.9541 78.4701 93.8054 79.5193C91.6567 80.5684 89.5401 81.4801 87.6067 82.2681C85.6734 83.0561 83.8958 83.6425 82.3931 84.1236C81.6463 84.371 80.9591 84.5817 80.3589 84.7421C79.7587 84.9024 79.241 85.0628 78.815 85.1682L77.8299 85.4202C77.7175 85.4524 77.6025 85.4754 77.4863 85.4889C77.5925 85.4393 77.7029 85.3994 77.8162 85.3698L78.7875 85.0811C79.209 84.9574 79.7037 84.8062 80.3222 84.623C80.9407 84.4397 81.5959 84.2336 82.3381 83.9724C83.8316 83.4776 85.5909 82.8362 87.5243 82.0711C89.4576 81.306 91.5468 80.3806 93.7001 79.3222C95.8533 78.2639 97.86 77.1736 99.6559 76.1152C101.452 75.0569 103.032 74.0673 104.338 73.1923C104.998 72.7662 105.575 72.3539 106.093 72.0011C106.611 71.6483 107.046 71.3368 107.403 71.0848L108.228 70.4984C108.319 70.4266 108.418 70.3637 108.521 70.3105Z" fill="white"/>
<path d="M109.235 58.0876C109.258 58.1517 105.052 59.8423 99.8434 61.8672C94.6343 63.8922 90.3873 65.482 90.3644 65.4179C90.3414 65.3537 94.5426 63.6678 99.7563 61.6428C104.97 59.6178 109.212 58.028 109.235 58.0876Z" fill="white"/>
<path d="M108.31 46.6885C108.31 46.7526 104.645 47.8567 100.063 49.1533C95.482 50.4498 91.7664 51.444 91.7481 51.3844C91.7298 51.3249 95.4133 50.2208 99.9947 48.9242C104.576 47.6277 108.292 46.6243 108.31 46.6885Z" fill="white"/>
<path d="M107.504 35.539C107.504 35.6031 103.944 36.4553 99.5228 37.4128C95.1017 38.3703 91.5099 39.1217 91.4961 39.0575C91.4824 38.9934 95.0513 38.1412 99.4724 37.1837C103.894 36.2262 107.485 35.4748 107.504 35.539Z" fill="white"/>
<path d="M75.5897 98.7859C75.5897 98.8455 65.4188 102.909 52.8244 107.885C40.2301 112.86 29.9951 116.828 29.9722 116.768C29.9493 116.709 40.1384 112.645 52.7374 107.665C65.3364 102.685 75.5667 98.7218 75.5897 98.7859Z" fill="white"/>
<path d="M21.6931 118.957C21.6284 118.998 21.5593 119.032 21.487 119.058L20.8731 119.31C20.337 119.521 19.5582 119.818 18.5823 120.176C16.649 120.89 13.9597 121.83 10.9634 122.783C7.96713 123.735 5.22743 124.528 3.23908 125.073C2.24491 125.339 1.43399 125.531 0.875056 125.687L0.229072 125.838C0.155022 125.862 0.0777765 125.875 0 125.875C0.0676105 125.838 0.140078 125.81 0.215327 125.793L0.852149 125.596L3.19327 124.908C5.16787 124.331 7.89383 123.534 10.8901 122.563C13.8864 121.591 16.5757 120.693 18.5228 120.02L20.8135 119.227L21.4412 119.017C21.5209 118.982 21.6063 118.962 21.6931 118.957Z" fill="white"/>
<path d="M27.1313 130.566C27.1588 130.626 22.22 132.687 16.1038 135.17C9.98758 137.653 5.00297 139.619 4.98006 139.559C4.95715 139.5 9.89137 137.434 16.0122 134.95C22.133 132.467 27.1084 130.502 27.1313 130.566Z" fill="white"/>
<path d="M36.1246 133.774C36.175 133.82 33.4033 137.1 29.9397 141.104C26.4761 145.108 23.6219 148.32 23.5715 148.279C23.5211 148.237 26.2929 144.953 29.7564 140.948C33.22 136.944 36.0742 133.733 36.1246 133.774Z" fill="white"/>
<path d="M45.3195 136.109C45.3837 136.132 44.2704 139.623 42.8364 143.898C41.4024 148.172 40.1883 151.645 40.1288 151.622C40.0692 151.599 41.1779 148.113 42.6119 143.834C44.0459 139.555 45.2554 136.087 45.3195 136.109Z" fill="white"/>
<path d="M105.428 84.5596C105.456 84.6191 102.821 85.7095 99.5457 86.9923C96.27 88.2751 93.5898 89.2602 93.5898 89.2006C93.5898 89.141 96.2013 88.0507 99.477 86.7679C102.753 85.485 105.401 84.4955 105.428 84.5596Z" fill="white"/>
<g opacity="0.3">
<path d="M66.3257 65.418C70.5773 76.9311 78.2374 83.3681 89.0542 89.1407C82.6574 88.4317 76.5271 86.1855 71.1866 82.5938" fill="black"/>
</g>
<path d="M62.4727 157.245H144.082V122.38C144.083 120.827 143.777 119.289 143.183 117.854C142.589 116.418 141.718 115.114 140.62 114.016C139.522 112.917 138.218 112.046 136.783 111.451C135.348 110.857 133.81 110.551 132.257 110.551H74.3019C71.1646 110.551 68.1558 111.797 65.9374 114.016C63.719 116.234 62.4727 119.243 62.4727 122.38V157.245Z" fill="#146166"/>
<path d="M73.051 110.551H86.0165C87.2875 110.551 88.5064 111.056 89.4051 111.954C90.3038 112.853 90.8087 114.072 90.8087 115.343V156.636C90.8087 156.797 90.7445 156.952 90.6302 157.066C90.516 157.181 90.361 157.245 90.1994 157.245H63.0864C62.9248 157.245 62.7698 157.181 62.6555 157.066C62.5412 156.952 62.4771 156.797 62.4771 156.636V121.129C62.4771 118.325 63.5909 115.635 65.5738 113.651C67.5567 111.667 70.2462 110.552 73.051 110.551Z" fill="#146166"/>
<path d="M68.4926 157.245V122.33C68.4926 119.207 69.733 116.211 71.941 114.002C74.1489 111.794 77.1438 110.552 80.2669 110.551H71.8737C71.8737 110.551 62.019 111.861 62.019 124.194C62.019 136.528 62.3352 157.245 62.3352 157.245H68.4926Z" fill="#404040"/>
<path d="M90.8091 153.928H22.3394V157.813H90.8091V153.928Z" fill="#263238"/>
<path d="M146.748 153.928H90.8086V157.813H146.748V153.928Z" fill="#455A64"/>
<path d="M90.8089 155.869C90.8029 155.823 90.8029 155.777 90.8089 155.731C90.8089 155.626 90.8089 155.489 90.8089 155.319C90.8089 154.943 90.8089 154.403 90.8089 153.748C90.8089 152.373 90.8089 150.399 90.8089 147.971C90.8318 143.073 90.8684 136.343 90.9097 128.903C90.9097 127.042 90.9692 125.237 90.8547 123.478C90.7754 121.801 90.4797 120.141 89.975 118.539C89.2342 116.266 87.7991 114.283 85.8718 112.869C83.9445 111.454 81.6221 110.68 79.2316 110.655C78.9259 110.645 78.62 110.652 78.3153 110.678C78.0943 110.686 77.874 110.707 77.6555 110.742L77.2524 110.797H77.1104L77.2478 110.765L77.651 110.687C77.8686 110.643 78.089 110.614 78.3107 110.6C78.6147 110.564 78.9209 110.548 79.227 110.554C81.1741 110.545 83.0915 111.032 84.798 111.97C87.3775 113.338 89.3123 115.669 90.1812 118.457C90.6996 120.077 91.0076 121.757 91.0975 123.455C91.212 125.214 91.1754 127.038 91.1571 128.898C91.0883 136.334 91.0288 143.068 90.983 147.961C90.9509 150.39 90.9234 152.36 90.9051 153.743C90.9051 154.412 90.8776 154.939 90.873 155.315V155.722C90.8567 155.773 90.8352 155.822 90.8089 155.869Z" fill="#263238"/>
<path d="M146.364 153.831C146.364 153.895 133.618 153.973 117.904 154C102.189 154.028 89.4438 154 89.4438 153.927C89.4438 153.853 102.18 153.785 117.904 153.757C133.627 153.73 146.364 153.766 146.364 153.831Z" fill="#263238"/>
<path d="M146.364 157.968C146.364 158.032 133.71 158.051 118.11 158.009C102.51 157.968 89.8514 157.881 89.856 157.812C89.8605 157.744 102.501 157.73 118.11 157.771C133.719 157.812 146.364 157.9 146.364 157.968Z" fill="#404040"/>
<path d="M138.997 149.493C138.997 149.493 138.997 149.434 138.997 149.328C138.997 149.223 138.997 149.053 138.997 148.847C138.997 148.421 138.997 147.803 138.997 147.015C138.997 145.407 138.974 143.065 138.96 140.106L139.029 140.179L102.409 140.225C102.46 140.175 102.285 140.344 102.524 140.106V149.498L102.405 149.383L128.519 149.434L136.22 149.466H138.3H138.841H139.029C138.971 149.47 138.912 149.47 138.855 149.466H138.328H136.275L128.601 149.498L102.405 149.553H102.29V149.434C102.29 147.907 102.29 146.364 102.29 144.806V140.042C102.528 139.804 102.359 139.978 102.414 139.923L139.033 139.968H139.107V140.042C139.107 143.02 139.074 145.375 139.065 146.996C139.065 147.79 139.065 148.401 139.065 148.829C139.065 149.026 139.065 149.182 139.065 149.287C139.051 149.358 139.028 149.428 138.997 149.493Z" fill="white"/>
<path d="M118.316 142.516V146.708H117.89V143.363L116.249 146.176H116.039L114.399 143.382V146.708H113.977V142.529H114.339L116.172 145.626L117.967 142.529L118.316 142.516Z" fill="white"/>
<path d="M122.297 145.576H119.969L119.465 146.694H119.007L120.918 142.516H121.353L123.263 146.694H122.805L122.297 145.576ZM122.136 145.219L121.133 142.974L120.13 145.219H122.136Z" fill="white"/>
<path d="M123.956 142.516H124.414V146.708H123.956V142.516Z" fill="white"/>
<path d="M125.761 142.516H126.219V146.309H128.56V146.708H125.779L125.761 142.516Z" fill="white"/>
<path d="M134.291 100.993V94.1211H121.463V121.674C120.425 122.288 119.62 123.229 119.174 124.35C118.729 125.471 118.668 126.709 119.003 127.868C119.337 129.027 120.047 130.042 121.021 130.754C121.995 131.466 123.178 131.834 124.384 131.8C125.589 131.767 126.75 131.334 127.683 130.569C128.616 129.804 129.268 128.751 129.538 127.575C129.807 126.399 129.678 125.167 129.171 124.072C128.664 122.978 127.808 122.082 126.737 121.527V100.993H134.291Z" fill="#F8A92F"/>
<path d="M124.368 128.372C125.527 128.372 126.467 127.433 126.467 126.274C126.467 125.115 125.527 124.176 124.368 124.176C123.209 124.176 122.27 125.115 122.27 126.274C122.27 127.433 123.209 128.372 124.368 128.372Z" fill="#263238"/>
<path d="M45.5443 59.3301C45.5915 59.4199 45.6313 59.5133 45.6634 59.6095C45.7702 59.8833 45.8605 60.1633 45.9337 60.448C46.2038 61.4942 46.3089 62.5763 46.2453 63.655C46.1544 65.2635 45.6985 66.8303 44.9121 68.2364C43.93 69.9677 42.4327 71.3498 40.6284 72.1902C38.8302 73.0524 36.7968 73.2941 34.8466 72.8774C33.2717 72.5121 31.8142 71.7558 30.6088 70.6783C29.8001 69.9546 29.1173 69.1015 28.5884 68.1539C28.4443 67.8993 28.3158 67.6361 28.2035 67.3659C28.1568 67.2744 28.1214 67.1774 28.0981 67.0773C28.1256 67.0773 28.2768 67.4621 28.6708 68.1081C29.2209 69.0247 29.912 69.8487 30.7187 70.55C31.9133 71.5892 33.3476 72.315 34.8924 72.6621C36.7958 73.0562 38.776 72.8131 40.5276 71.9703C42.2883 71.1508 43.7537 69.8086 44.7242 68.1265C45.5041 66.7478 45.9659 65.2122 46.0757 63.6321C46.1557 62.5665 46.077 61.495 45.8421 60.4525C45.6772 59.7287 45.5168 59.3392 45.5443 59.3301Z" fill="#263238"/>
<path d="M84.5415 130.25L90.7952 130.168L90.5524 151.412L84.7477 151.641L84.5415 130.25Z" fill="#EBEBEB"/>
<path d="M84.7476 151.642C85.6036 150.536 86.5213 149.479 87.4964 148.476C88.4214 147.419 89.4065 146.415 90.4469 145.471C89.5794 146.575 88.6525 147.632 87.6705 148.636C86.7523 149.691 85.7765 150.695 84.7476 151.642Z" fill="#263238"/>
<path d="M90.7953 137.324C89.6703 136.245 88.6 135.11 87.5883 133.924C86.5149 132.793 85.501 131.606 84.5508 130.369C85.6771 131.447 86.7475 132.581 87.7578 133.769C88.8296 134.902 89.8434 136.088 90.7953 137.324Z" fill="#263238"/>
<path d="M37.6913 37.0738C37.6912 37.3965 37.7858 37.7121 37.9634 37.9815C38.1409 38.2509 38.3935 38.4624 38.69 38.5896C38.9865 38.7169 39.3138 38.7544 39.6314 38.6975C39.949 38.6406 40.2429 38.4919 40.4768 38.2696C41.361 37.4312 41.0587 35.956 40.5089 34.8656C39.9591 33.7752 39.1986 32.6711 39.3589 31.4661C39.4826 30.5499 40.124 29.7848 40.5547 28.9555C40.936 28.2359 41.1449 27.4375 41.1647 26.6233C41.1846 25.8091 41.015 25.0015 40.6692 24.2641C40.305 23.5347 39.7467 22.9199 39.0555 22.4874C38.3644 22.055 37.5673 21.8216 36.7521 21.813C35.0982 21.8451 33.3527 22.8805 31.882 22.12C30.8145 21.5656 30.3701 20.2874 29.4401 19.4994C28.0061 18.3128 25.8391 18.7068 24.1394 19.4994C22.4397 20.292 20.8132 21.387 18.9486 21.4786C17.3955 21.5519 15.9019 20.9013 14.3671 20.6906C12.6853 20.4638 10.9747 20.7667 9.473 21.5572C7.97133 22.3477 6.75331 23.5865 5.98834 25.1013C5.22337 26.6161 4.94945 28.3317 5.2047 30.0094C5.45994 31.6871 6.23165 33.2436 7.41251 34.4624C8.23311 35.3709 9.34745 35.9613 10.56 36.1301" fill="#263238"/>
<path d="M39.7668 72.0837C37.4355 72.8521 34.8948 72.6648 32.7014 71.563C30.508 70.4612 28.841 68.5346 28.0657 66.2057C27.1495 63.4293 26.366 61.0928 26.366 61.0928C26.366 61.0928 18.9899 62.2198 16.6809 55.2148C14.3718 48.2098 10.725 32.6237 10.725 32.6237L10.5005 31.6799C17.5376 25.6095 27.5435 24.597 36.2711 27.7811L36.7293 29.2334L45.8922 60.9874C46.47 63.269 46.1586 65.6849 45.0212 67.7455C43.8837 69.806 42.0053 71.3568 39.7668 72.0837Z" fill="#FFBE9D"/>
<path d="M16.8963 42.9564C17.0724 42.827 17.2052 42.6473 17.2771 42.4409C17.3491 42.2345 17.3568 42.0112 17.2992 41.8003C17.2417 41.5895 17.1216 41.4011 16.9548 41.2598C16.788 41.1186 16.5823 41.0313 16.3648 41.0093C16.1049 40.9775 15.843 41.05 15.6364 41.2109C15.457 41.339 15.3211 41.5188 15.2468 41.7263C15.1726 41.9338 15.1635 42.1591 15.2208 42.3719C15.2781 42.5847 15.3991 42.7749 15.5675 42.9171C15.736 43.0592 15.9438 43.1465 16.1632 43.1672C16.2933 43.182 16.425 43.171 16.5508 43.1349C16.6766 43.0987 16.794 43.0381 16.8963 42.9564Z" fill="#263238"/>
<path d="M13.9687 42.0761C14.1199 42.1631 14.6422 41.4117 15.6088 41.1002C16.5755 40.7887 17.4414 41.0681 17.501 40.9124C17.5376 40.8391 17.359 40.6558 16.9787 40.5184C16.4721 40.3499 15.9249 40.348 15.4171 40.5129C14.9093 40.6777 14.4676 41.0008 14.1565 41.4347C13.932 41.792 13.9 42.0394 13.9687 42.0761Z" fill="#263238"/>
<path d="M25.789 39.0428C25.6503 39.2032 25.5622 39.4011 25.536 39.6116C25.5098 39.822 25.5466 40.0355 25.6418 40.225C25.7369 40.4145 25.8861 40.5715 26.0705 40.6762C26.2549 40.781 26.4662 40.8286 26.6777 40.8133C26.8891 40.7979 27.0913 40.7201 27.2586 40.5898C27.4259 40.4595 27.5508 40.2826 27.6175 40.0813C27.6842 39.88 27.6897 39.6634 27.6334 39.459C27.577 39.2546 27.4613 39.0715 27.3008 38.9329C27.0852 38.7481 26.8054 38.6561 26.5223 38.6767C26.2391 38.6973 25.9756 38.8289 25.789 39.0428Z" fill="#263238"/>
<path d="M24.5059 39.716C24.6525 39.8031 25.1748 39.0563 26.1414 38.7447C27.1081 38.4332 27.974 38.7127 28.0382 38.5523C28.0748 38.4836 27.8961 38.2958 27.5159 38.1629C27.0093 37.9945 26.462 37.9925 25.9543 38.1574C25.4465 38.3223 25.0048 38.6453 24.6937 39.0792C24.4692 39.4274 24.4326 39.6794 24.5059 39.716Z" fill="#263238"/>
<path d="M23.1455 48.9334C23.1455 48.8601 22.4904 48.9334 21.4779 49.1075C21.2167 49.1625 20.9923 49.1716 20.9235 49.0296C20.83 48.7775 20.8125 48.5035 20.8731 48.2416C20.919 47.5269 20.9648 46.7938 21.0152 46.0287C21.1847 42.8905 21.203 40.3432 21.0564 40.334C20.9098 40.3248 20.6441 42.863 20.47 46.0013C20.4333 46.7664 20.4013 47.4948 20.3692 48.2141C20.3087 48.5874 20.3765 48.9701 20.5616 49.2999C20.6263 49.3835 20.7098 49.4507 20.8053 49.4961C20.9008 49.5415 21.0057 49.5637 21.1114 49.561C21.267 49.5568 21.4212 49.5305 21.5695 49.4831C22.5545 49.2128 23.1593 49.0067 23.1455 48.9334Z" fill="#263238"/>
<path d="M26.6275 49.0127C27.4476 48.0964 24.3368 51.363 22.3164 51.8899C22.8051 52.2956 23.4171 52.5233 24.0522 52.5358C24.6873 52.5483 25.3078 52.3448 25.8121 51.9586C27.6721 50.5246 26.6275 49.0127 26.6275 49.0127Z" fill="white"/>
<path d="M26.3247 60.9977C29.5895 60.0334 32.4936 58.1196 34.6675 55.5C34.6675 55.5 34.0994 61.2451 26.8791 62.8303L26.3247 60.9977Z" fill="#EB996E"/>
<path d="M37.7466 34.0354C37.8886 33.9346 42.8641 31.9829 43.8949 38.1816C44.9257 44.3803 38.3238 43.3633 38.2826 43.1892C38.2414 43.0151 37.7466 34.0354 37.7466 34.0354Z" fill="#FFBE9D"/>
<path d="M39.8216 40.7021C39.8216 40.6746 39.9407 40.757 40.1377 40.812C40.4133 40.8773 40.7034 40.8347 40.9486 40.6929C41.5625 40.3447 41.9382 39.2131 41.787 38.0952C41.7132 37.5608 41.5224 37.0492 41.2281 36.5971C41.1369 36.4134 41.0027 36.2544 40.8367 36.134C40.6707 36.0135 40.478 35.935 40.2751 35.9053C40.1456 35.893 40.0159 35.9266 39.9087 36.0004C39.8015 36.0741 39.7236 36.1831 39.6887 36.3085C39.6337 36.4917 39.6887 36.6108 39.6887 36.6246C39.6887 36.6383 39.5375 36.5467 39.5421 36.281C39.5538 36.1211 39.6183 35.9696 39.7253 35.8503C39.8744 35.6946 40.078 35.6026 40.2935 35.5938C40.5562 35.6025 40.8124 35.6782 41.0377 35.8137C41.263 35.9492 41.4499 36.14 41.5808 36.368C41.9198 36.8656 42.1335 37.4377 42.2039 38.0357C42.3734 39.2864 41.929 40.5646 41.0769 40.9678C40.9185 41.0451 40.7446 41.0853 40.5683 41.0853C40.3921 41.0853 40.2182 41.0451 40.0598 40.9678C39.8582 40.8487 39.8032 40.7158 39.8216 40.7021Z" fill="#EB996E"/>
<path d="M9.91887 36.0238C9.91887 36.0238 14.7798 36.8989 19.5766 32.5557C22.7194 29.706 26.7328 27.6169 27.8827 28.0887C29.0327 28.5606 30.2788 32.2762 34.2143 32.3587C34.2143 32.3587 35.9781 39.6202 38.7728 38.5619C41.5675 37.5036 36.6562 26.8655 36.6562 26.8655L28.7715 23.9746L20.7128 24.6756L12.5303 27.9788L8.54443 32.2304L9.91887 36.0238Z" fill="#263238"/>
<path d="M35.4831 20.7168C34.9588 20.9127 34.4579 21.1663 33.9895 21.4727C33.5663 21.8404 33.1866 22.2555 32.8579 22.7097C33.0246 22.1403 33.3695 21.6394 33.8421 21.2807C34.3146 20.9219 34.8898 20.7243 35.4831 20.7168Z" fill="#263238"/>
<path d="M31.7402 18.7051C31.8874 18.884 31.9994 19.0892 32.0701 19.3098C32.2892 19.8231 32.4431 20.3618 32.5282 20.9133C32.6134 21.4674 32.5979 22.0324 32.4824 22.581C32.4565 22.8138 32.3748 23.037 32.2442 23.2315C32.3514 22.4726 32.3668 21.7035 32.29 20.9408C32.0976 19.6947 31.6669 18.7326 31.7402 18.7051Z" fill="#263238"/>
<path d="M50.5698 129.93L82.2963 124.029L87.0381 145.47L54.0884 151.032L50.5698 129.93Z" fill="#E0E0E0"/>
<path d="M82.2963 124.029C82.2963 124.029 82.2963 124.061 82.2414 124.116L82.0627 124.368L81.3571 125.312L78.7182 128.762C76.455 131.685 73.3488 135.703 69.8898 140.165L69.8302 140.243L69.7432 140.197L69.1247 139.872L55.9805 132.885L52.013 130.741L50.9363 130.15L50.6615 129.99C50.6282 129.973 50.5974 129.951 50.5698 129.926L50.6706 129.967L50.9592 130.104L52.0542 130.672C53.0209 131.172 54.3816 131.882 56.063 132.748L69.2346 139.661L69.8485 139.986L69.6974 140.019L78.5808 128.661L81.2793 125.253C81.5954 124.868 81.8428 124.561 82.0215 124.336C82.1039 124.245 82.1681 124.167 82.2185 124.103L82.2963 124.029Z" fill="#263238"/>
<path d="M54.0885 151.031C54.0335 150.994 56.0723 147.76 58.647 143.806C61.2218 139.852 63.3476 136.673 63.4026 136.709C63.4575 136.746 61.4188 139.98 58.8211 143.934C56.2234 147.888 54.1435 151.068 54.0885 151.031Z" fill="#263238"/>
<path d="M87.0381 145.469C86.9969 145.52 84.0281 143.247 80.4088 140.393C76.7894 137.539 73.8894 135.184 73.9306 135.134C73.9718 135.083 76.936 137.351 80.56 140.205C84.1839 143.06 87.1023 145.414 87.0381 145.469Z" fill="#263238"/>
<path d="M51.4035 134.713C51.4035 134.713 51.628 138.868 53.6301 138.836C55.6322 138.804 62.6968 134.947 63.5168 136.284C64.3369 137.622 62.1699 139.491 62.1699 139.491C62.1699 139.491 64.6576 139.455 63.7322 140.944C62.8067 142.433 60.0349 149.406 57.4739 150.061C53.8088 151 45.3193 151.366 45.3193 151.366L47.9353 136.765L51.4035 134.713Z" fill="#FFBE9D"/>
<path d="M62.94 138.588C62.8635 138.697 62.7743 138.797 62.6743 138.886C62.491 139.064 62.2161 139.316 61.8679 139.61C60.035 141.146 57.9708 142.383 55.7517 143.275C55.3256 143.444 54.9775 143.568 54.7346 143.646C54.6102 143.697 54.479 143.729 54.3452 143.742C54.7796 143.507 55.2279 143.299 55.6876 143.119C57.8487 142.139 59.8876 140.908 61.7626 139.454C62.1367 139.141 62.5299 138.852 62.94 138.588Z" fill="#EB996E"/>
<path d="M62.8209 142.703C62.6284 143.084 62.3832 143.435 62.0925 143.748C60.7506 145.332 59.0112 146.531 57.0529 147.22C56.6569 147.382 56.2407 147.488 55.8159 147.537C56.1992 147.361 56.5924 147.208 56.9933 147.078C58.8772 146.316 60.5687 145.146 61.9459 143.651C62.2208 143.32 62.5129 143.004 62.8209 142.703Z" fill="#EB996E"/>
</svg>
